<?xml version="1.0" standalone="no"?><!DOCTYPE svg PUBLIC "-//W3C//DTD SVG 1.1//EN" "http://www.w3.org/Graphics/SVG/1.1/DTD/svg11.dtd"><svg class="icon" width="128px" height="128.00px" viewBox="0 0 1024 1024" version="1.1" xmlns="http://www.w3.org/2000/svg"><path fill="#cdcdcd" d="M777.121 70.13c14.73 0 29.458 14.73 29.458 29.459s-14.729 29.458-29.458 29.458H129.047v765.906h765.906V313.16c0-14.729 14.73-29.458 29.458-29.458s29.458 14.729 29.458 29.458v581.794c0 29.458-29.458 58.916-58.916 58.916H129.047c-29.458 0-58.916-29.458-58.916-58.916V129.047c0-29.458 29.458-58.916 58.916-58.916H777.12z m169.384 7.365c14.729 14.73 14.729 29.458 0 44.187L416.262 725.57c-14.73 14.729-29.458 14.729-44.187 0-14.73-14.729-14.73-29.458 0-44.187L902.318 77.495c7.364-7.364 29.458-7.364 44.187 0zM777.121 70.13c14.73 0 29.458 14.73 29.458 29.459s-14.729 29.458-29.458 29.458H129.047v765.906h765.906V313.16c0-14.729 14.73-29.458 29.458-29.458s29.458 14.729 29.458 29.458v581.794c0 29.458-29.458 58.916-58.916 58.916H129.047c-29.458 0-58.916-29.458-58.916-58.916V129.047c0-29.458 29.458-58.916 58.916-58.916H777.12z m169.384 7.365c14.729 14.73 14.729 29.458 0 44.187L416.262 725.57c-14.73 14.729-29.458 14.729-44.187 0-14.73-14.729-14.73-29.458 0-44.187L902.318 77.495c7.364-7.364 29.458-7.364 44.187 0z"  /></svg>