<?xml version="1.0" standalone="no"?><!DOCTYPE svg PUBLIC "-//W3C//DTD SVG 1.1//EN" "http://www.w3.org/Graphics/SVG/1.1/DTD/svg11.dtd"><svg class="icon" width="128px" height="128.00px" viewBox="0 0 1024 1024" version="1.1" xmlns="http://www.w3.org/2000/svg"><path fill="#cdcdcd" d="M910.222 62.578L796.444 859.022 512 688.356l22.756-45.512L756.622 773.69l79.645-557.511L460.8 654.222V870.4h-51.2V625.778l403.911-460.8L227.556 460.8l159.288 73.956-22.755 45.51L113.778 460.8 910.222 62.578z m0 0L796.444 859.022 512 688.356l22.756-45.512L756.622 773.69l79.645-557.511L460.8 654.222V870.4h-51.2V625.778l403.911-460.8L227.556 460.8l159.288 73.956-22.755 45.51L113.778 460.8 910.222 62.578z"  /></svg>