<?xml version="1.0" standalone="no"?><!DOCTYPE svg PUBLIC "-//W3C//DTD SVG 1.1//EN" "http://www.w3.org/Graphics/SVG/1.1/DTD/svg11.dtd"><svg class="icon" width="128px" height="128.00px" viewBox="0 0 1024 1024" version="1.1" xmlns="http://www.w3.org/2000/svg"><path fill="#cdcdcd" d="M395.957 420.49V270.838a24.533 24.533 0 0 1 24.534-24.533h6.378a24.533 24.533 0 0 1 24.534 24.533v149.654h149.653a24.533 24.533 0 0 1 24.533 24.533v1.423a24.533 24.533 0 0 1-24.533 24.533H451.403v154.56a24.533 24.533 0 0 1-24.534 24.534h-6.378a24.533 24.533 0 0 1-24.534-24.534V470.98H246.304a24.533 24.533 0 0 1-24.533-24.533v-1.423a24.533 24.533 0 0 1 24.533-24.533h149.653z m361.376-104.757h147.2A49.067 49.067 0 0 1 953.6 364.8V880a49.067 49.067 0 0 1-49.067 49.067h-515.2A49.067 49.067 0 0 1 340.267 880v-98.133H94.933A24.533 24.533 0 0 1 70.4 757.333V119.467a24.533 24.533 0 0 1 24.533-24.534H732.8a24.533 24.533 0 0 1 24.533 24.534v196.266z m0 49.067v392.533a24.533 24.533 0 0 1-24.533 24.534H389.333V880h515.2V364.8h-147.2z m-49.066-49.067V144h-588.8v588.8h588.8V315.733z"  /></svg>