<?xml version="1.0" standalone="no"?><!DOCTYPE svg PUBLIC "-//W3C//DTD SVG 1.1//EN" "http://www.w3.org/Graphics/SVG/1.1/DTD/svg11.dtd"><svg class="icon" width="128px" height="128.00px" viewBox="0 0 1024 1024" version="1.1" xmlns="http://www.w3.org/2000/svg"><path fill="#cdcdcd" d="M884.392 476.688h-336.6v-336.6c0-19.422-15.891-35.312-35.313-35.312-19.421 0-35.311 15.89-35.311 35.312v336.6H140.567c-19.421 0-35.312 15.89-35.312 35.311 0 19.422 15.89 35.312 35.312 35.312h336.6v336.6c0 19.421 15.89 35.311 35.311 35.311 19.422 0 35.312-15.89 35.312-35.312V547.312h336.6c19.421 0 35.312-15.89 35.312-35.312 0.001-19.421-15.89-35.312-35.31-35.312z"  /></svg>